{
    "accessors" : [
        {
            "bufferView" : 0,
            "componentType" : 5126,
            "count" : 2952,
            "max" : [
                0.9779999256134033,
                4.046999931335449,
                -0.024000000208616257
            ],
            "min" : [
                -0.8549999594688416,
                -5.621999740600586,
                -5.493000030517578
            ],
            "type" : "VEC3"
        },
        {
            "bufferView" : 1,
            "componentType" : 5126,
            "count" : 2952,
            "type" : "VEC4"
        },
        {
            "bufferView" : 2,
            "componentType" : 5123,
            "count" : 2952,
            "type" : "SCALAR"
        },
        {
            "bufferView" : 3,
            "componentType" : 5126,
            "count" : 2952,
            "max" : [
                0,
                0,
                0
            ],
            "min" : [
                0,
                0,
                0
            ],
            "type" : "VEC3"
        },
        {
            "bufferView" : 4,
            "componentType" : 5126,
            "count" : 2952,
            "max" : [
                0.13199996948242188,
                0.03600001335144043,
                0.2850000858306885
            ],
            "min" : [
                -0.06000000238418579,
                -0.9960002899169922,
                -0.546000063419342
            ],
            "type" : "VEC3"
        },
        {
            "bufferView" : 5,
            "componentType" : 5126,
            "count" : 2952,
            "max" : [
                0.2849999964237213,
                0.3899998664855957,
                0.7620000243186951
            ],
            "min" : [
                -0.13199999928474426,
                -2.187000036239624,
                -1.1609998941421509
            ],
            "type" : "VEC3"
        },
        {
            "bufferView" : 6,
            "componentType" : 5126,
            "count" : 2952,
            "max" : [
                0.42899999022483826,
                1.3289995193481445,
                0.9810000061988831
            ],
            "min" : [
                -0.20399999618530273,
                -2.7269999980926514,
                -1.6440000534057617
            ],
            "type" : "VEC3"
        },
        {
            "bufferView" : 7,
            "componentType" : 5126,
            "count" : 2952,
            "max" : [
                0.47099998593330383,
                2.5229997634887695,
                0.8669999837875366
            ],
            "min" : [
                -0.20399999618530273,
                -3.2129998207092285,
                -1.5269999504089355
            ],
            "type" : "VEC3"
        },
        {
            "bufferView" : 8,
            "componentType" : 5126,
            "count" : 2952,
            "max" : [
                0.4830000102519989,
                3.746999740600586,
                0.7350000143051147
            ],
            "min" : [
                -0.22199997305870056,
                -3.687000036239624,
                -1.7429999113082886
            ],
            "type" : "VEC3"
        },
        {
            "bufferView" : 9,
            "componentType" : 5126,
            "count" : 2952,
            "max" : [
                0.5040000081062317,
                4.871999740600586,
                0.4740000367164612
            ],
            "min" : [
                -0.2160000503063202,
                -4.380000114440918,
                -1.8029999732971191
            ],
            "type" : "VEC3"
        },
        {
            "bufferView" : 10,
            "componentType" : 5126,
            "count" : 2952,
            "max" : [
                0.5280000567436218,
                5.565000057220459,
                0.32400012016296387
            ],
            "min" : [
                -0.21900001168251038,
                -4.8420000076293945,
                -1.712999939918518
            ],
            "type" : "VEC3"
        },
        {
            "bufferView" : 11,
            "componentType" : 5126,
            "count" : 2952,
            "max" : [
                0.6089999675750732,
                5.990999698638916,
                0.527999997138977
            ],
            "min" : [
                -0.23399999737739563,
                -4.51200008392334,
                -1.6319999694824219
            ],
            "type" : "VEC3"
        },
        {
            "bufferView" : 12,
            "componentType" : 5126,
            "count" : 2952,
            "max" : [
                0.6600000262260437,
                5.882999420166016,
                0.8939999938011169
            ],
            "min" : [
                -0.24300000071525574,
                -4.263000011444092,
                -1.4789999723434448
            ],
            "type" : "VEC3"
        },
        {
            "bufferView" : 13,
            "componentType" : 5126,
            "count" : 2952,
            "max" : [
                0.5820000171661377,
                4.7669997215271,
                1.274999976158142
            ],
            "min" : [
                -0.25200000405311584,
                -4.085999965667725,
                -1.1069999933242798
            ],
            "type" : "VEC3"
        },
        {
            "bufferView" : 14,
            "componentType" : 5126,
            "count" : 2952,
            "max" : [
                0.4350000023841858,
                3.6659998893737793,
                1.3919999599456787
            ],
            "min" : [
                -0.24299997091293335,
                -3.6029999256134033,
                -1.0199999809265137
            ],
            "type" : "VEC3"
        },
        {
            "bufferView" : 15,
            "componentType" : 5126,
            "count" : 2952,
            "max" : [
                0.1980000138282776,
                2.6429998874664307,
                1.3589999675750732
            ],
            "min" : [
                -0.21900001168251038,
                -2.7899999618530273,
                -0.8999999761581421
            ],
            "type" : "VEC3"
        },
        {
            "bufferView" : 16,
            "componentType" : 5126,
            "count" : 2952,
            "max" : [
                0.19200003147125244,
                2.1959996223449707,
                1.3230000734329224
            ],
            "min" : [
                -0.18000000715255737,
                -1.6170001029968262,
                -0.6149999499320984
            ],
            "type" : "VEC3"
        },
        {
            "bufferView" : 17,
            "componentType" : 5126,
            "count" : 2952,
            "max" : [
                0.09000000357627869,
                1.3620001077651978,
                0.8070000410079956
            ],
            "min" : [
                -0.08099997043609619,
                -0.7139999866485596,
                -0.2849999964237213
            ],
            "type" : "VEC3"
        },
        {
            "bufferView" : 18,
            "componentType" : 5126,
            "count" : 16,
            "max" : [
                1.5
            ],
            "min" : [
                0
            ],
            "type" : "SCALAR"
        },
        {
            "bufferView" : 19,
            "componentType" : 5126,
            "count" : 720,
            "type" : "SCALAR"
        }
    ],
    "animations" : [
        {
            "channels" : [
                {
                    "sampler" : 0,
                    "target" : {
                        "node" : 0,
                        "path" : "weights"
                    }
                }
            ],
            "name" : "KeyAction",
            "samplers" : [
                {
                    "input" : 18,
                    "interpolation" : "CUBICSPLINE",
                    "output" : 19
                }
            ]
        }
    ],
    "asset" : {
        "generator" : "Khronos Blender glTF 2.0 I/O",
        "version" : "2.0"
    },
    "bufferViews" : [
        {
            "buffer" : 0,
            "byteLength" : 35424,
            "byteOffset" : 0
        },
        {
            "buffer" : 0,
            "byteLength" : 47232,
            "byteOffset" : 35424
        },
        {
            "buffer" : 0,
            "byteLength" : 5904,
            "byteOffset" : 82656
        },
        {
            "buffer" : 0,
            "byteLength" : 35424,
            "byteOffset" : 88560
        },
        {
            "buffer" : 0,
            "byteLength" : 35424,
            "byteOffset" : 123984
        },
        {
            "buffer" : 0,
            "byteLength" : 35424,
            "byteOffset" : 159408
        },
        {
            "buffer" : 0,
            "byteLength" : 35424,
            "byteOffset" : 194832
        },
        {
            "buffer" : 0,
            "byteLength" : 35424,
            "byteOffset" : 230256
        },
        {
            "buffer" : 0,
            "byteLength" : 35424,
            "byteOffset" : 265680
        },
        {
            "buffer" : 0,
            "byteLength" : 35424,
            "byteOffset" : 301104
        },
        {
            "buffer" : 0,
            "byteLength" : 35424,
            "byteOffset" : 336528
        },
        {
            "buffer" : 0,
            "byteLength" : 35424,
            "byteOffset" : 371952
        },
        {
            "buffer" : 0,
            "byteLength" : 35424,
            "byteOffset" : 407376
        },
        {
            "buffer" : 0,
            "byteLength" : 35424,
            "byteOffset" : 442800
        },
        {
            "buffer" : 0,
            "byteLength" : 35424,
            "byteOffset" : 478224
        },
        {
            "buffer" : 0,
            "byteLength" : 35424,
            "byteOffset" : 513648
        },
        {
            "buffer" : 0,
            "byteLength" : 35424,
            "byteOffset" : 549072
        },
        {
            "buffer" : 0,
            "byteLength" : 35424,
            "byteOffset" : 584496
        },
        {
            "buffer" : 0,
            "byteLength" : 64,
            "byteOffset" : 619920
        },
        {
            "buffer" : 0,
            "byteLength" : 2880,
            "byteOffset" : 619984
        }
    ],
    "buffers" : [
        {
            "byteLength" : 622864,
            "uri" : "Horse_u.bin"
        }
    ],
    "extensions" : {},
    "materials" : [
        {
            "name" : "Material_0_COLOR_0",
            "pbrMetallicRoughness" : {
                "metallicFactor" : 0,
                "roughnessFactor" : 1
            }
        }
    ],
    "meshes" : [
        {
            "name" : "Mesh_0",
            "primitives" : [
                {
                    "attributes" : {
                        "COLOR_0" : 1,
                        "POSITION" : 0
                    },
                    "indices" : 2,
                    "material" : 0,
                    "targets" : [
                        {
                            "POSITION" : 3
                        },
                        {
                            "POSITION" : 4
                        },
                        {
                            "POSITION" : 5
                        },
                        {
                            "POSITION" : 6
                        },
                        {
                            "POSITION" : 7
                        },
                        {
                            "POSITION" : 8
                        },
                        {
                            "POSITION" : 9
                        },
                        {
                            "POSITION" : 10
                        },
                        {
                            "POSITION" : 11
                        },
                        {
                            "POSITION" : 12
                        },
                        {
                            "POSITION" : 13
                        },
                        {
                            "POSITION" : 14
                        },
                        {
                            "POSITION" : 15
                        },
                        {
                            "POSITION" : 16
                        },
                        {
                            "POSITION" : 17
                        }
                    ]
                }
            ]
        }
    ],
    "nodes" : [
        {
            "mesh" : 0,
            "name" : "Object_0",
            "rotation" : [
                0.7071068286895752,
                0,
                0,
                0.7071067094802856
            ]
        }
    ],
    "scene" : 0,
    "scenes" : [
        {
            "name" : "Scene",
            "nodes" : [
                0
            ]
        }
    ]
}
